<?xml version="1.0" encoding="UTF-8" standalone="no"?>
<!-- Generator: Adobe Illustrator 17.0.0, SVG Export Plug-In . SVG Version: 6.00 Build 0)  -->

<svg
   xmlns:dc="http://purl.org/dc/elements/1.1/"
   xmlns:cc="http://creativecommons.org/ns#"
   xmlns:rdf="http://www.w3.org/1999/02/22-rdf-syntax-ns#"
   xmlns:svg="http://www.w3.org/2000/svg"
   xmlns="http://www.w3.org/2000/svg"
   xmlns:sodipodi="http://sodipodi.sourceforge.net/DTD/sodipodi-0.dtd"
   xmlns:inkscape="http://www.inkscape.org/namespaces/inkscape"
   version="1.1"
   id="Layer_1"
   x="0px"
   y="0px"
   width="1000"
   height="1000"
   viewBox="0 0 1000 1000"
   enable-background="new 0 0 1200 1200"
   xml:space="preserve"
   inkscape:version="0.91 r13725"
   sodipodi:docname="logo.svg"><metadata
     id="metadata13"><rdf:RDF><cc:Work
         rdf:about=""><dc:format>image/svg+xml</dc:format><dc:type
           rdf:resource="http://purl.org/dc/dcmitype/StillImage" /><dc:title></dc:title></cc:Work></rdf:RDF></metadata><defs
     id="defs11" /><sodipodi:namedview
     pagecolor="#ffffff"
     bordercolor="#666666"
     borderopacity="1"
     objecttolerance="10"
     gridtolerance="10"
     guidetolerance="10"
     inkscape:pageopacity="0"
     inkscape:pageshadow="2"
     inkscape:window-width="1029"
     inkscape:window-height="823"
     id="namedview9"
     showgrid="false"
     inkscape:zoom="0.5"
     inkscape:cx="488"
     inkscape:cy="620"
     inkscape:window-x="58"
     inkscape:window-y="18"
     inkscape:window-maximized="0"
     inkscape:current-layer="Layer_1" /><g
     id="g3"
     transform="matrix(2.8,0,0,2.8,-1180.1719,-1119.7079)"><path
       d="m 656.781,646.769 c 0,-27.069 -21.944,-49.013 -49.013,-49.013 -27.069,0 -49.013,21.944 -49.013,49.013 0,20.017 12.006,37.22 29.205,44.831 l -27.5,60.866 95.043,0 -27.877,-60.889 c 17.172,-7.621 29.155,-24.809 29.155,-44.808 z"
       id="path5"
       inkscape:connector-curvature="0"
       style="fill:#ffffff" /><path
       d="m 594.389,420.823 c 44.835,0 94.579,179.735 102.449,331.644 l 56.656,0 c -9.99,-160.041 -77.032,-349.703 -158.548,-349.703 -108.443,0 -128.445,214.457 -148.249,349.703 l 70.173,0 c 19.19,-125.56 18.014,-331.644 77.519,-331.644 z"
       id="path7"
       inkscape:connector-curvature="0"
       style="fill:#ffffff" /></g></svg>
